<?xml version="1.0" encoding="UTF-8" standalone="no"?>
<svg width="35px" height="44px" viewBox="0 0 35 44" version="1.1" xmlns="http://www.w3.org/2000/svg" xmlns:xlink="http://www.w3.org/1999/xlink" xmlns:sketch="http://www.bohemiancoding.com/sketch/ns">
    <!-- Generator: Sketch 3.0.4 (8054) - http://www.bohemiancoding.com/sketch -->
    <title>Shape</title>
    <desc>Created with Sketch.</desc>
    <defs></defs>
    <g id="Logging-In-Process" stroke="none" stroke-width="1" fill="none" fill-rule="evenodd" sketch:type="MSPage">
        <g id="Login-Page---Blank" sketch:type="MSArtboardGroup" transform="translate(-48.000000, -817.000000)" fill="#CECECE">
            <g id="Password-Field" sketch:type="MSLayerGroup" transform="translate(48.000000, 817.000000)">
                <path d="M30.625,14.6666667 L28.4375,14.6666667 L28.4375,10.4761905 C28.4375,4.60952381 23.625,0 17.5,0 C11.375,0 6.5625,4.60952381 6.5625,10.4761905 L6.5625,14.6666667 L4.375,14.6666667 C1.96875,14.6666667 0,16.552381 0,18.8571429 L0,39.8095238 C0,42.1142857 1.96875,44 4.375,44 L30.625,44 C33.03125,44 35,42.1142857 35,39.8095238 L35,18.8571429 C35,16.552381 33.03125,14.6666667 30.625,14.6666667 L30.625,14.6666667 Z M17.5,33.5238095 C15.09375,33.5238095 13.125,31.6380952 13.125,29.3333333 C13.125,27.0285714 15.09375,25.1428571 17.5,25.1428571 C19.90625,25.1428571 21.875,27.0285714 21.875,29.3333333 C21.875,31.6380952 19.90625,33.5238095 17.5,33.5238095 L17.5,33.5238095 Z M24.28125,14.6666667 L10.71875,14.6666667 L10.71875,10.4761905 C10.71875,6.91428571 13.78125,3.98095238 17.5,3.98095238 C21.21875,3.98095238 24.28125,6.91428571 24.28125,10.4761905 L24.28125,14.6666667 L24.28125,14.6666667 Z" id="Shape" sketch:type="MSShapeGroup"></path>
            </g>
        </g>
    </g>
</svg>