<?xml version="1.0" encoding="UTF-8" standalone="no"?>
<svg width="35px" height="44px" viewBox="0 0 35 44" version="1.1" xmlns="http://www.w3.org/2000/svg" xmlns:xlink="http://www.w3.org/1999/xlink" xmlns:sketch="http://www.bohemiancoding.com/sketch/ns">
    <!-- Generator: Sketch 3.0.4 (8054) - http://www.bohemiancoding.com/sketch -->
    <title>Shape</title>
    <desc>Created with Sketch.</desc>
    <defs></defs>
    <g id="Logging-In-Process" stroke="none" stroke-width="1" fill="none" fill-rule="evenodd" sketch:type="MSPage">
        <g id="Login-Page---Blank" sketch:type="MSArtboardGroup" transform="translate(-48.000000, -709.000000)" fill="#CECECE">
            <g id="Reg-Key-Field" sketch:type="MSLayerGroup" transform="translate(48.000000, 707.000000)">
                <path d="M30.625,16.6666667 L28.4375,16.6666667 L28.4375,12.4761905 C28.4375,6.60952381 23.625,2 17.5,2 C11.375,2 6.5625,6.60952381 6.5625,12.4761905 L6.5625,16.6666667 L4.375,16.6666667 C1.96875,16.6666667 0,18.552381 0,20.8571429 L0,41.8095238 C0,44.1142857 1.96875,46 4.375,46 L30.625,46 C33.03125,46 35,44.1142857 35,41.8095238 L35,20.8571429 C35,18.552381 33.03125,16.6666667 30.625,16.6666667 L30.625,16.6666667 Z M17.5,5.98095238 C21.21875,5.98095238 24.28125,8.91428571 24.28125,12.4761905 L24.28125,16.6666667 L10.9375,16.6666667 L10.9375,12.4761905 L10.71875,12.4761905 C10.71875,8.91428571 13.78125,5.98095238 17.5,5.98095238 L17.5,5.98095238 Z M30.625,41.8095238 L4.375,41.8095238 L4.375,20.8571429 L30.625,20.8571429 L30.625,41.8095238 L30.625,41.8095238 Z M17.5,35.5238095 C19.90625,35.5238095 21.875,33.6380952 21.875,31.3333333 C21.875,29.0285714 19.90625,27.1428571 17.5,27.1428571 C15.09375,27.1428571 13.125,29.0285714 13.125,31.3333333 C13.125,33.6380952 15.09375,35.5238095 17.5,35.5238095 L17.5,35.5238095 Z" id="Shape" sketch:type="MSShapeGroup"></path>
            </g>
        </g>
    </g>
</svg>