<?xml version="1.0" encoding="UTF-8" standalone="no"?>
<svg width="490px" height="379px" viewBox="0 0 490 379" version="1.1" xmlns="http://www.w3.org/2000/svg" xmlns:xlink="http://www.w3.org/1999/xlink" xmlns:sketch="http://www.bohemiancoding.com/sketch/ns">
    <!-- Generator: Sketch 3.0.4 (8054) - http://www.bohemiancoding.com/sketch -->
    <title>ProCharge Logo</title>
    <desc>Created with Sketch.</desc>
    <defs></defs>
    <g id="Logging-In-Process" stroke="none" stroke-width="1" fill="none" fill-rule="evenodd" sketch:type="MSPage">
        <g id="Login-Page---Blank" sketch:type="MSArtboardGroup" transform="translate(-75.000000, -88.000000)">
            <g id="ProCharge-Logo" sketch:type="MSLayerGroup" transform="translate(76.000000, 88.000000)">
                <g id="ProCharge-Wordmark" transform="translate(0.000000, 293.000000)" sketch:type="MSShapeGroup">
                    <g id="Group" transform="translate(-0.185571, 0.036570)" fill="#000000">
                        <g id="Shape">
                            <path d="M-0.482688596,2.7347717 L16.3696812,2.7347717 C18.4061542,2.7347717 20.5413905,2.96846531 22.7726081,3.43585254 C25.0038257,3.9046308 27.0402986,4.71699432 28.8861999,5.87294309 C30.7307102,7.03028289 32.2455456,8.61466995 33.4293151,10.6233222 C34.6130845,12.6347565 35.2056647,15.1553091 35.2056647,18.1835888 C35.2056647,20.8265523 34.7229762,23.1134113 33.760381,25.0399925 C32.7963949,26.9693559 31.5013428,28.5509609 29.8766157,29.7903717 C28.2518887,31.0297824 26.3781667,31.9534286 24.2596228,32.5571371 C22.1382968,33.1650187 19.9223806,33.4654819 17.609092,33.4654819 L4.96877136,33.4654819 L4.96877136,61.2235538 L-0.482688596,61.2235538 L-0.482688596,2.7347717 L-0.482688596,2.7347717 Z M4.9701624,28.5092299 L17.3628791,28.5092299 C18.9041441,28.5092299 20.4189795,28.3297866 21.9059942,27.9708999 C23.393009,27.6134044 24.7158817,27.0347345 25.8718305,26.2362813 C27.0291703,25.4392191 27.9639448,24.3778606 28.681718,23.0563789 C29.3967092,21.7348971 29.7555958,20.1101701 29.7555958,18.1821978 C29.7555958,16.3098668 29.3841899,14.7129604 28.639987,13.3914787 C27.8957841,12.069997 26.931798,10.9822088 25.7480285,10.1267233 C24.5628681,9.27401979 23.1996553,8.65361889 21.6583903,8.26830263 C20.1157342,7.88437741 18.5730782,7.68963273 17.0318132,7.68963273 L4.9701624,7.68963273 L4.9701624,28.5092299 L4.9701624,28.5092299 Z"></path>
                            <path d="M40.3274498,2.7347717 L55.6928049,2.7347717 C56.4634374,2.7347717 57.5108856,2.76259237 58.8323673,2.81684267 C60.1538491,2.87248401 61.5852225,3.03801698 63.1278785,3.31205057 C64.6691435,3.58886622 66.2396203,4.02982381 67.8365266,4.63353231 C69.433433,5.24141391 70.8648064,6.12054703 72.1320378,7.2764958 C73.3978782,8.43383561 74.4453264,9.89302966 75.2716002,11.654078 C76.0978741,13.4179083 76.511011,15.567055 76.511011,18.0987358 C76.511011,20.9086233 76.0283224,23.2205208 75.0657273,25.0372105 C74.1017411,26.8552911 72.890151,28.3283955 71.430957,29.4579147 C69.9717629,30.5874338 68.3595552,31.427618 66.5985069,31.9784672 C64.8346765,32.5293165 63.1556992,32.9160237 61.5587928,33.134416 L78.5766956,61.2221627 L72.3810328,61.2221627 L55.9417999,33.4640909 L45.7803008,33.4640909 L45.7803008,61.2221627 L40.3288408,61.2221627 L40.3288408,2.7347717 L40.3274498,2.7347717 Z M45.7789097,28.5092299 L57.3439616,28.5092299 C60.2080994,28.5092299 62.5339073,28.1503433 64.3255583,27.4353521 C66.1144273,26.7203609 67.5068517,25.8398368 68.4972675,24.7923886 C69.4890743,23.7463315 70.1623345,22.6182034 70.5212211,21.4052222 C70.8787167,20.1936321 71.05816,19.0919336 71.05816,18.1001268 C71.05816,17.10832 70.8787167,16.0080126 70.5212211,14.7950314 C70.1623345,13.5848323 69.4890743,12.4553132 68.4972675,11.4078651 C67.5068517,10.3618079 66.1144273,9.47989274 64.3255583,8.76490156 C62.5352983,8.04991038 60.2080994,7.69102376 57.3439616,7.69102376 L45.7789097,7.69102376 L45.7789097,28.5092299 L45.7789097,28.5092299 Z"></path>
                            <path d="M78.9063706,31.9784672 C78.9063706,27.5174231 79.6505734,23.4152655 81.1375882,19.6678215 C82.6246029,15.9245506 84.6902875,12.6876158 87.333251,9.9611903 C89.9762145,7.2347648 93.1575079,5.10091954 96.8743492,3.55826348 C100.592582,2.01699845 104.680829,1.24497491 109.141873,1.24497491 C113.602917,1.24497491 117.692555,2.01699845 121.409397,3.55826348 C125.126238,5.09952851 128.307531,7.2347648 130.950495,9.9611903 C133.593458,12.6876158 135.659143,15.9231595 137.146158,19.6678215 C138.633172,23.4138745 139.377375,27.5174231 139.377375,31.9784672 C139.377375,36.4395114 138.633172,40.5569703 137.146158,44.3280619 C135.659143,48.1019356 133.593458,51.3513896 130.950495,54.0778151 C128.307531,56.8028496 125.126238,58.9241755 121.409397,60.4376199 C117.692555,61.9524553 113.602917,62.7105685 109.141873,62.7105685 C104.680829,62.7105685 100.592582,61.9524553 96.8743492,60.4376199 C93.1575079,58.9241755 89.9762145,56.8028496 87.333251,54.0778151 C84.6902875,51.3513896 82.6246029,48.1019356 81.1375882,44.3280619 C79.6491824,40.5569703 78.9063706,36.4395114 78.9063706,31.9784672 L78.9063706,31.9784672 Z M84.3592216,31.9784672 C84.3592216,35.6132375 84.9378915,39.0004039 86.0938402,42.1399663 C87.249789,45.2795288 88.9023367,48.0059542 91.0500923,50.3192428 C93.1978479,52.6311404 95.8004714,54.449221 98.8565718,55.7707028 C101.914063,57.0921845 105.34157,57.7543164 109.141873,57.7543164 C112.942176,57.7543164 116.371074,57.0921845 119.427174,55.7707028 C122.483274,54.449221 125.085898,52.6311404 127.233654,50.3192428 C129.381409,48.0059542 131.033957,45.2795288 132.189906,42.1399663 C133.347245,39.0004039 133.925915,35.6146286 133.925915,31.9784672 C133.925915,28.3423059 133.347245,24.9565305 132.189906,21.8169681 C131.033957,18.6774057 129.381409,15.9509802 127.233654,13.6376916 C125.085898,11.324403 122.483274,9.50632237 119.427174,8.18484062 C116.371074,6.86335888 112.942176,6.20261801 109.141873,6.20261801 C105.34157,6.20261801 101.914063,6.86335888 98.8565718,8.18484062 C95.8004714,9.50632237 93.1978479,11.324403 91.0500923,13.6376916 C88.9023367,15.9509802 87.25118,18.6774057 86.0938402,21.8169681 C84.9365004,24.9565305 84.3592216,28.3436969 84.3592216,31.9784672 L84.3592216,31.9784672 Z"></path>
                            <path d="M176.285665,37.9320902 L192.429999,40.0061211 C190.547931,46.5926643 187.320733,51.989874 182.748406,56.194968 C178.174688,60.400062 172.403291,62.5033045 165.434213,62.5033045 C157.875338,62.5033045 151.870246,59.9368479 147.414766,54.8053256 C142.959286,49.6751943 140.730851,43.0789139 140.730851,35.0206573 C140.730851,25.7285541 143.480924,17.5005914 148.979679,10.3409424 C154.478434,3.17990239 162.03731,-0.400617624 171.653524,-0.400617624 C178.651813,-0.400617624 184.320274,1.74574694 188.658907,6.0398671 C192.996149,10.3339873 195.209284,16.0080126 195.296919,23.0661161 L178.313792,24.3013538 C178.255368,20.5970318 177.680871,17.8330484 176.593083,16.0080126 C175.505295,14.1843678 173.666349,13.2732409 171.079027,13.2732409 C166.608245,13.2732409 163.557709,16.5825094 161.926027,23.1982643 C160.294345,29.8154103 159.477808,35.0206573 159.477808,38.8153965 C159.477808,44.9901938 161.888469,48.078288 166.712573,48.078288 C169.094022,48.078288 171.020603,47.2853989 172.490926,45.6968388 C173.961248,44.1082786 175.227088,41.5209565 176.285665,37.9320902 L176.285665,37.9320902 Z"></path>
                            <path d="M229.19223,37.005662 L213.569534,37.005662 L209.525799,61.2235538 L192.039118,61.2235538 L202.09629,1.01128129 L219.580189,1.01128129 L215.882822,23.1551423 L231.505518,23.1551423 L235.204276,1.01128129 L252.690957,1.01128129 L242.635177,61.2235538 L225.147105,61.2235538 L229.19223,37.005662 L229.19223,37.005662 Z"></path>
                            <path d="M281.681485,48.9156901 L265.56219,48.9156901 L259.941024,61.2235538 L245.019408,61.2235538 L272.888763,1.01128129 L291.778996,1.01128129 L301.129523,61.2235538 L283.360462,61.2235538 L281.681485,48.9156901 L281.681485,48.9156901 Z M280.608998,36.4770693 L278.213639,19.0529847 L270.279184,36.4770693 L280.608998,36.4770693 L280.608998,36.4770693 Z"></path>
                            <path d="M347.505186,35.9888166 L354.023569,61.2235538 L336.207213,61.2235538 L330.908766,38.3299258 L323.783893,38.3299258 L319.937686,61.2235538 L302.763987,61.2235538 L312.821159,1.01128129 L339.11169,1.01128129 C346.257429,1.01128129 351.550311,2.57619389 354.991728,5.70880114 C358.433145,8.8414084 360.152462,13.0979707 360.152462,18.4784879 C360.155244,27.0945489 355.939022,32.9313251 347.505186,35.9888166 L347.505186,35.9888166 Z M325.888527,25.8008878 L332.660077,25.8008878 C339.168723,25.8008878 342.42235,23.5960998 342.42235,19.1837419 C342.42235,15.4794199 339.691751,13.6265634 334.230554,13.6265634 L327.933346,13.6265634 L325.888527,25.8008878 L325.888527,25.8008878 Z"></path>
                            <path d="M388.788276,28.2268501 L415.343104,28.2268501 L409.829047,61.2235538 L401.12396,61.2235538 L400.595368,54.6064078 C397.181771,59.8116549 391.737267,62.4142784 384.261853,62.4142784 C378.786746,62.4142784 374.321528,61.2374641 370.863419,58.8852266 C367.40531,56.5329891 364.727571,53.4963631 362.830201,49.7753488 C360.932832,46.0557254 359.982756,41.6823163 359.982756,36.6523395 C359.982756,26.5367445 362.851067,17.8316574 368.584907,10.5384692 C374.320137,3.24528096 381.965257,-0.400617624 391.523048,-0.400617624 C405.021636,-0.400617624 413.474946,6.05516846 416.887151,18.9639586 L400.34359,21.6556082 C399.197379,16.3029116 396.18301,13.6279544 391.301873,13.6279544 C386.889515,13.6279544 383.729087,16.3627261 381.817807,21.8322695 C379.905136,27.3018129 378.949497,32.6545095 378.949497,37.8889682 C378.949497,44.8872573 381.720435,48.3870974 387.263703,48.3870974 C391.598163,48.3870974 394.679302,45.9027117 396.50712,40.9339404 L386.625219,40.9339404 L388.788276,28.2268501 L388.788276,28.2268501 Z"></path>
                            <path d="M462.634067,47.373034 L460.29574,61.2235538 L415.918992,61.2235538 L425.976163,1.01128129 L469.249822,1.01128129 L467.043643,14.1996691 L441.213543,14.1996691 L439.650022,23.6392219 L461.354316,23.6392219 L459.148137,36.6968526 L437.488356,36.6968526 L435.720352,47.373034 L462.634067,47.373034 L462.634067,47.373034 Z"></path>
                        </g>
                        <path d="M474.969751,8.54929138 C474.969751,7.63260036 475.146412,6.77433274 475.496953,5.97031542 C475.847493,5.16629811 476.323227,4.46521727 476.924153,3.86429083 C477.52508,3.2633644 478.227551,2.789022 479.028787,2.43709055 C479.832804,2.08655013 480.691072,1.91127991 481.607763,1.91127991 C482.524454,1.91127991 483.384112,2.08655013 484.186739,2.43709055 C484.990756,2.789022 485.691837,3.26475543 486.292763,3.86429083 C486.89369,4.46382623 487.368032,5.16768914 487.719963,5.97031542 C488.070504,6.77294171 488.245774,7.63120932 488.245774,8.54929138 C488.245774,9.46459137 488.070504,10.322859 487.719963,11.1268763 C487.368032,11.9295026 486.892299,12.6319745 486.292763,13.2329009 C485.693228,13.8338273 484.990756,14.3095608 484.186739,14.6601012 C483.385503,15.0106416 482.524454,15.1859118 481.607763,15.1859118 C480.691072,15.1859118 479.834195,15.0106416 479.028787,14.6601012 C478.227551,14.3095608 477.52508,13.8324363 476.924153,13.2329009 C476.321836,12.6319745 475.847493,11.9295026 475.496953,11.1268763 C475.146412,10.32425 474.969751,9.4659824 474.969751,8.54929138 L474.969751,8.54929138 Z M475.935128,8.54929138 C475.935128,9.33383423 476.083969,10.072473 476.380259,10.7610345 C476.67794,11.4509871 477.082731,12.0519135 477.594631,12.5638138 C478.105141,13.0743231 478.706067,13.4791138 479.39602,13.776795 C480.085972,14.0744761 480.821829,14.2219257 481.607763,14.2219257 C482.393697,14.2219257 483.130944,14.0744761 483.820897,13.776795 C484.510849,13.4791138 485.111776,13.0743231 485.623676,12.5638138 C486.134185,12.0519135 486.538976,11.4509871 486.835266,10.7610345 C487.134338,10.072473 487.281788,9.33522526 487.281788,8.54929138 C487.281788,7.7633575 487.134338,7.02610979 486.835266,6.33615721 C486.538976,5.64620464 486.134185,5.0452782 485.623676,4.53476894 C485.111776,4.02286864 484.510849,3.61807792 483.820897,3.32039677 C483.130944,3.02410665 482.393697,2.87526607 481.607763,2.87526607 C480.821829,2.87526607 480.085972,3.02410665 479.39602,3.32039677 C478.706067,3.61807792 478.105141,4.02286864 477.594631,4.53476894 C477.082731,5.0452782 476.67794,5.64620464 476.380259,6.33615721 C476.083969,7.02750082 475.935128,7.76474853 475.935128,8.54929138 L475.935128,8.54929138 Z M480.162479,12.3495947 L479.201275,12.3495947 L479.201275,4.69612882 L482.143311,4.69612882 C483.012706,4.69612882 483.630325,4.87696316 483.998949,5.24002288 C484.368964,5.6030826 484.55258,6.13028427 484.55258,6.82023684 C484.55258,7.1763414 484.501112,7.48097772 484.400958,7.72858166 C484.300803,7.97896768 484.158918,8.19040476 483.982257,8.3628929 C483.802813,8.53538105 483.598331,8.67309335 483.366029,8.77324776 C483.135117,8.87340217 482.887513,8.94851797 482.625999,8.99581311 L484.910076,12.3495947 L483.822288,12.3495947 L481.538211,8.99581311 L480.16387,8.99581311 L480.16387,12.3495947 L480.162479,12.3495947 Z M480.162479,8.14032756 L481.394935,8.14032756 C481.656449,8.14032756 481.917963,8.13059032 482.179477,8.11250689 C482.440992,8.09442345 482.674685,8.04017315 482.884731,7.95253804 C483.090604,7.86351191 483.261701,7.73275476 483.392459,7.56026662 C483.523216,7.38777848 483.588594,7.14017453 483.588594,6.82023684 C483.588594,6.56985083 483.538517,6.36536892 483.436972,6.20540007 C483.336817,6.0440402 483.20606,5.91606512 483.046091,5.82147485 C482.886122,5.72688458 482.701115,5.65872394 482.49246,5.61699294 C482.286587,5.57665297 482.079323,5.55439643 481.879014,5.55439643 L480.165261,5.55439643 L480.165261,8.14032756 L480.162479,8.14032756 Z" id="Shape"></path>
                    </g>
                    <g id="Group" transform="translate(326.316249, 67.197208)" fill="#FFFFFF">
                        <path d="M-0.492272803,0.524266571 L7.82332496,0.524266571 L13.942481,11.8890096 L20.063028,0.524266571 L28.3800168,0.524266571 L28.3800168,18.1792627 L23.1121732,18.1792627 L23.1121732,5.49860207 L23.0634871,5.49860207 L15.9664346,18.1792627 L11.9185273,18.1792627 L4.82147485,5.49860207 L4.77417971,5.49860207 L4.77417971,18.1792627 L-0.492272803,18.1792627 L-0.492272803,0.524266571 L-0.492272803,0.524266571 Z" id="Shape"></path>
                        <path d="M31.6475543,6.71853838 C31.6475543,5.43461453 31.8228245,4.37742914 32.1719739,3.54837322 C32.5211233,2.7193173 33.0344146,2.0655316 33.7076748,1.58562507 C34.380935,1.10571854 35.1988626,0.777434653 36.1586757,0.597991343 C37.1170977,0.419939065 38.2076679,0.330912927 39.4276042,0.330912927 L48.1076527,0.330912927 C49.327589,0.330912927 50.4167682,0.419939065 51.3765812,0.597991343 C52.3350033,0.777434653 53.1515399,1.10571854 53.8275821,1.58562507 C54.5008423,2.0655316 55.0155247,2.7193173 55.363283,3.54837322 C55.7124324,4.37882017 55.8877026,5.43461453 55.8877026,6.71853838 L55.8877026,11.9849909 C55.8877026,13.2869982 55.7124324,14.3469656 55.363283,15.1676754 C55.0141336,15.9883851 54.5008423,16.6393887 53.8275821,17.1179042 C53.1529309,17.5978107 52.3363943,17.9274856 51.3765812,18.1055379 C50.4181592,18.2849812 49.327589,18.3740074 48.1076527,18.3740074 L39.4276042,18.3740074 C38.2076679,18.3740074 37.1184887,18.2849812 36.1586757,18.1055379 C35.2002536,17.9274856 34.382326,17.5978107 33.7076748,17.1179042 C33.0330236,16.6379977 32.5197322,15.986994 32.1719739,15.1676754 C31.8242155,14.3483567 31.6475543,13.2856071 31.6475543,11.9849909 L31.6475543,6.71853838 L31.6475543,6.71853838 Z M37.2075149,10.3032315 C37.2075149,10.9361517 37.2478548,11.4828278 37.3299258,11.9363047 C37.4119968,12.3925637 37.5650104,12.7584055 37.7931399,13.0338301 C38.0198784,13.3106457 38.338425,13.5137366 38.7446068,13.6431027 C39.1507885,13.7724688 39.671035,13.8392384 40.3053463,13.8392384 L47.2313017,13.8392384 C47.8656129,13.8392384 48.3858594,13.7738599 48.7920412,13.6431027 C49.1982229,13.5123456 49.5167696,13.3106457 49.743508,13.0338301 C49.9702465,12.7584055 50.1246512,12.3925637 50.2067221,11.9363047 C50.2887931,11.4828278 50.3291331,10.9361517 50.3291331,10.3032315 L50.3291331,8.40168881 C50.3291331,7.84944854 50.28462,7.35702271 50.1942028,6.92441132 C50.1051767,6.494582 49.9368617,6.12456711 49.6948218,5.81575769 C49.451391,5.50555724 49.1091968,5.27047259 48.6710212,5.10772168 C48.2328457,4.9463618 47.6555669,4.86429083 46.9391846,4.86429083 L40.6002454,4.86429083 C39.8824721,4.86429083 39.3065843,4.9463618 38.8670177,5.10772168 C38.4302332,5.27047259 38.086648,5.50555724 37.8446082,5.81575769 C37.6011773,6.12456711 37.4328623,6.494582 37.3452272,6.92441132 C37.256201,7.35702271 37.2102969,7.84805751 37.2102969,8.40168881 L37.2102969,10.3032315 L37.2075149,10.3032315 Z" id="Shape"></path>
                        <path d="M59.1538491,0.524266571 L74.7362054,0.524266571 C75.8086922,0.524266571 76.7476397,0.602164443 77.5530481,0.756569152 C78.3570654,0.910973861 79.0289345,1.17109711 79.5644824,1.5369389 C80.1000303,1.90278069 80.4992569,2.38268722 80.7579891,2.97526745 C81.0195034,3.56923872 81.1474784,4.2967492 81.1474784,5.15779888 C81.1474784,5.92286726 81.0820999,6.53909507 80.9527338,7.01065539 C80.8219766,7.48360676 80.6383602,7.86474991 80.4032756,8.15686693 C80.1667999,8.44898395 79.8913753,8.66876723 79.5742196,8.81621677 C79.255673,8.96088424 78.9106967,9.09164139 78.5378997,9.20570613 L78.5378997,9.2794309 C79.7244512,9.42409837 80.5618534,9.83167116 81.0501061,10.4979762 C81.5383588,11.1642812 81.7803986,12.1644342 81.7803986,13.4970442 C81.7803986,14.4721586 81.6454684,15.2650477 81.37839,15.8757114 C81.1113116,16.484984 80.7357325,16.9593264 80.255826,17.3015206 C79.7759195,17.6423238 79.2069868,17.8746264 78.549028,17.9956463 C77.8896782,18.1180572 77.1705139,18.1792627 76.3901441,18.1792627 L59.1482849,18.1792627 L59.1482849,0.524266571 L59.1538491,0.524266571 Z M64.5691422,7.52255569 L74.1519714,7.52255569 C74.6555255,7.52255569 75.0464059,7.42240129 75.3232215,7.21791937 C75.5986461,7.01482849 75.7377495,6.66150601 75.7377495,6.15656088 C75.7377495,5.63631438 75.5986461,5.27464569 75.3232215,5.07155481 C75.0464059,4.86846393 74.6569165,4.76691849 74.1519714,4.76691849 L64.5691422,4.76691849 L64.5691422,7.52255569 L64.5691422,7.52255569 Z M64.5691422,13.9366108 L74.2743823,13.9366108 C74.8600074,13.9366108 75.3315677,13.8517577 75.6890633,13.6806606 C76.0465589,13.5095635 76.2260022,13.1645872 76.2260022,12.6443407 C76.2260022,12.0420233 76.0465589,11.6483608 75.6890633,11.4605713 C75.3315677,11.2741728 74.8600074,11.1809736 74.2743823,11.1809736 L64.5691422,11.1809736 L64.5691422,13.9366108 L64.5691422,13.9366108 Z" id="Shape"></path>
                        <path d="M85.3442262,0.524266571 L90.7581283,0.524266571 L90.7581283,18.1792627 L85.3442262,18.1792627 L85.3442262,0.524266571 L85.3442262,0.524266571 Z" id="Shape"></path>
                        <path d="M94.7086632,0.524266571 L100.123956,0.524266571 L100.123956,13.6444938 L112.291326,13.6444938 L112.291326,18.1806537 L94.7086632,18.1806537 L94.7086632,0.524266571 L94.7086632,0.524266571 Z" id="Shape"></path>
                        <path d="M114.582358,0.524266571 L133.896857,0.524266571 L133.896857,4.62085998 L119.997651,4.62085998 L119.997651,7.44883092 L133.165173,7.44883092 L133.165173,11.1072488 L119.997651,11.1072488 L119.997651,13.9352197 L134.214012,13.9352197 L134.214012,18.1792627 L114.583749,18.1792627 L114.583749,0.524266571 L114.582358,0.524266571 Z" id="Shape"></path>
                    </g>
                </g>
                <g id="ProCharge-Icon" transform="translate(115.000000, 0.000000)" fill="#FFFFFF" sketch:type="MSShapeGroup">
                    <path d="M128.829862,258.070458 C57.801235,258.070458 0.0236262097,200.302753 0.0236262097,129.279077 C0.0236262097,58.260354 57.801235,0.482745139 128.829862,0.482745139 C199.848586,0.482745139 257.621243,58.260354 257.621243,129.279077 C257.616291,200.302753 199.843634,258.070458 128.829862,258.070458 L128.829862,258.070458 Z M128.829862,12.4215363 C64.3871298,12.4215363 11.9574655,64.8363451 11.9574655,129.279077 C11.9574655,193.716858 64.3871298,246.146522 128.829862,246.146522 C193.262691,246.146522 245.682452,193.716858 245.682452,129.279077 C245.6775,64.8363451 193.257739,12.4215363 128.829862,12.4215363 L128.829862,12.4215363 Z" id="Shape"></path>
                    <g id="Group" transform="translate(80.204236, 35.097150)">
                        <path d="M76.1884033,184.657594 L15.1178471,184.657594 C6.50666592,184.657594 -0.500131856,177.645845 -0.500131856,169.039615 L-0.500131856,32.1421374 C-0.500131856,23.5210526 6.50666592,16.5192066 15.1178471,16.5192066 L69.2855933,16.5192066 L69.2855933,7.84860387 C69.2855933,4.86761994 71.7070238,2.44123767 74.6880077,2.44123767 L86.399016,2.44123767 C89.3899035,2.44123767 91.8162858,4.86761994 91.8162858,7.84860387 L91.8162858,169.039615 C91.8162858,177.645845 84.8045362,184.657594 76.1884033,184.657594 L76.1884033,184.657594 Z M15.1178471,22.4910781 C9.79961329,22.4910781 5.47173961,26.8239036 5.47173961,32.1421374 L5.47173961,169.039615 C5.47173961,174.357849 9.79961329,178.680771 15.1178471,178.680771 L76.1884033,178.680771 C81.5214925,178.680771 85.8493662,174.357849 85.8493662,169.039615 L85.8493662,8.40815734 L75.2475612,8.40815734 L75.2475612,22.4910781 L15.1178471,22.4910781 L15.1178471,22.4910781 Z" id="Shape"></path>
                        <g transform="translate(14.855402, 113.891413)" id="Shape">
                            <path d="M17.2372177,15.5139911 L0.678396675,15.5139911 L0.678396675,-0.574408864 L17.2372177,-0.574408864 L17.2372177,15.5139911 L17.2372177,15.5139911 Z M3.65938061,12.5330072 L14.2562338,12.5330072 L14.2562338,2.41647867 L3.65938061,2.41647867 L3.65938061,12.5330072 L3.65938061,12.5330072 Z"></path>
                            <path d="M39.0895135,15.5139911 L22.5207889,15.5139911 L22.5207889,-0.574408864 L39.0895135,-0.574408864 L39.0895135,15.5139911 L39.0895135,15.5139911 Z M25.5017728,12.5330072 L36.098626,12.5330072 L36.098626,2.41647867 L25.5017728,2.41647867 L25.5017728,12.5330072 L25.5017728,12.5330072 Z"></path>
                            <path d="M60.926954,15.5139911 L44.3582293,15.5139911 L44.3582293,-0.574408864 L60.926954,-0.574408864 L60.926954,15.5139911 L60.926954,15.5139911 Z M47.3491169,12.5330072 L57.9410182,12.5330072 L57.9410182,2.41647867 L47.3491169,2.41647867 L47.3491169,12.5330072 L47.3491169,12.5330072 Z"></path>
                            <path d="M17.2372177,35.1775911 L0.678396675,35.1775911 L0.678396675,19.0842393 L17.2372177,19.0842393 L17.2372177,35.1775911 L17.2372177,35.1775911 Z M3.65938061,32.1867036 L14.2562338,32.1867036 L14.2562338,22.0602715 L3.65938061,22.0602715 L3.65938061,32.1867036 L3.65938061,32.1867036 Z"></path>
                            <path d="M39.0895135,35.1775911 L22.5207889,35.1775911 L22.5207889,19.0842393 L39.0895135,19.0842393 L39.0895135,35.1775911 L39.0895135,35.1775911 Z M25.5017728,32.1867036 L36.098626,32.1867036 L36.098626,22.0602715 L25.5017728,22.0602715 L25.5017728,32.1867036 L25.5017728,32.1867036 Z"></path>
                            <path d="M60.926954,35.1775911 L44.3582293,35.1775911 L44.3582293,19.0842393 L60.926954,19.0842393 L60.926954,35.1775911 L60.926954,35.1775911 Z M47.3491169,32.1867036 L57.9410182,32.1867036 L57.9410182,22.0602715 L47.3491169,22.0602715 L47.3491169,32.1867036 L47.3491169,32.1867036 Z"></path>
                            <path d="M17.2372177,54.8461429 L0.678396675,54.8461429 L0.678396675,38.7626947 L17.2372177,38.7626947 L17.2372177,54.8461429 L17.2372177,54.8461429 Z M3.65938061,51.8701108 L14.2562338,51.8701108 L14.2562338,41.7436786 L3.65938061,41.7436786 L3.65938061,51.8701108 L3.65938061,51.8701108 Z"></path>
                            <path d="M39.0895135,54.8461429 L22.5207889,54.8461429 L22.5207889,38.7626947 L39.0895135,38.7626947 L39.0895135,54.8461429 L39.0895135,54.8461429 Z M25.5017728,51.8701108 L36.098626,51.8701108 L36.098626,41.7436786 L25.5017728,41.7436786 L25.5017728,51.8701108 L25.5017728,51.8701108 Z"></path>
                            <path d="M60.926954,54.8461429 L44.3582293,54.8461429 L44.3582293,38.7626947 L60.926954,38.7626947 L60.926954,54.8461429 L60.926954,54.8461429 Z M47.3491169,51.8701108 L57.9410182,51.8701108 L57.9410182,41.7436786 L47.3491169,41.7436786 L47.3491169,51.8701108 L47.3491169,51.8701108 Z"></path>
                        </g>
                        <path d="M72.2566736,103.710511 L19.0594803,103.710511 C14.127487,103.710511 10.1066249,99.6846969 10.1066249,94.7527035 L10.1066249,37.2276365 C10.1066249,32.2906914 14.127487,28.2747811 19.0594803,28.2747811 L72.2566736,28.2747811 C77.1936188,28.2747811 81.209529,32.2906914 81.209529,37.2276365 L81.209529,94.7527035 C81.2045772,99.6846969 77.1936188,103.710511 72.2566736,103.710511 L72.2566736,103.710511 Z M19.0594803,34.2466526 C17.4154825,34.2466526 16.0735446,35.5885906 16.0735446,37.2325883 L16.0735446,94.7576553 C16.0735446,96.4016531 17.4154825,97.7485429 19.0594803,97.7485429 L72.2566736,97.7485429 C73.9006714,97.7485429 75.2426094,96.4066049 75.2426094,94.7576553 L75.2426094,37.2325883 C75.2426094,35.5885906 73.9006714,34.2466526 72.2566736,34.2466526 L19.0594803,34.2466526 L19.0594803,34.2466526 Z" id="Shape"></path>
                    </g>
                </g>
            </g>
        </g>
    </g>
</svg>